<!-- <svg id="logo-85" width="40" height="40" viewBox="0 0 40 40" fill="none" xmlns="http://www.w3.org/2000/svg"><path class="ccustom" fill-rule="evenodd" clip-rule="evenodd" d="M10 0C15.5228 0 20 4.47715 20 10V0H30C35.5228 0 40 4.47715 40 10C40 15.5228 35.5228 20 30 20C35.5228 20 40 24.4772 40 30C40 32.7423 38.8961 35.2268 37.1085 37.0334L37.0711 37.0711L37.0379 37.1041C35.2309 38.8943 32.7446 40 30 40C27.2741 40 24.8029 38.9093 22.999 37.1405C22.9756 37.1175 22.9522 37.0943 22.9289 37.0711C22.907 37.0492 22.8852 37.0272 22.8635 37.0051C21.0924 35.2009 20 32.728 20 30C20 35.5228 15.5228 40 10 40C4.47715 40 0 35.5228 0 30V20H10C4.47715 20 0 15.5228 0 10C0 4.47715 4.47715 0 10 0ZM18 10C18 14.4183 14.4183 18 10 18V2C14.4183 2 18 5.58172 18 10ZM38 30C38 25.5817 34.4183 22 30 22C25.5817 22 22 25.5817 22 30H38ZM2 22V30C2 34.4183 5.58172 38 10 38C14.4183 38 18 34.4183 18 30V22H2ZM22 18V2L30 2C34.4183 2 38 5.58172 38 10C38 14.4183 34.4183 18 30 18H22Z" fill="#5417D7"></path></svg> -->
<!-- <svg id="logo-13" width="49" height="48" viewBox="0 0 49 48" fill="none" xmlns="http://www.w3.org/2000/svg"> <path d="M1.98441 29.2899C1.98441 27.0299 2.42954 24.7919 3.29444 22.704C4.15935 20.6159 5.42701 18.7187 7.02513 17.1206C8.62324 15.5225 10.5204 14.2548 12.6084 13.3899C14.6965 12.5251 16.9344 12.0799 19.1945 12.0799V29.2899H1.98441Z" class="ccustom" fill="#442781"></path> <path d="M1.98441 29.2899C1.98441 31.55 2.42954 33.7879 3.29444 35.876C4.15935 37.964 5.42701 39.8612 7.02513 41.4593C8.62324 43.0574 10.5204 44.3251 12.6084 45.19C14.6965 46.0549 16.9344 46.5 19.1945 46.5V29.2899H1.98441Z" class="ccompli1" fill="#61459C"></path> <path d="M36.4043 29.2899C36.4043 31.55 35.9595 33.7879 35.0947 35.876C34.2298 37.964 32.9622 39.8612 31.3638 41.4593C29.7657 43.0574 27.8685 44.3251 25.7804 45.19C23.6925 46.0549 21.4545 46.5 19.1945 46.5V29.2899H36.4043Z" class="ccompli2" fill="#A992DB"></path> <path d="M47.0156 14.422C47.0156 21.5586 41.23 27.344 34.0935 27.344H21.1716V14.422C21.1716 7.2854 26.957 1.5 34.0935 1.5C41.23 1.5 47.0156 7.2854 47.0156 14.422Z" class="ccustom" fill="#FF7917"></path> </svg> -->
<svg id="logo-86" width="40" height="40" viewBox="0 0 40 40" fill="none" xmlns="http://www.w3.org/2000/svg"><path class="ccustom" fill-rule="evenodd" clip-rule="evenodd" d="M25.5557 11.6853C23.9112 10.5865 21.9778 10 20 10V0C23.9556 0 27.8224 1.17298 31.1114 3.37061C34.4004 5.56823 36.9638 8.69181 38.4776 12.3463C39.9913 16.0008 40.3874 20.0222 39.6157 23.9018C38.844 27.7814 36.9392 31.3451 34.1421 34.1421C31.3451 36.9392 27.7814 38.844 23.9018 39.6157C20.0222 40.3874 16.0008 39.9913 12.3463 38.4776C8.69181 36.9638 5.56823 34.4004 3.37061 31.1114C1.17298 27.8224 0 23.9556 0 20H10C10 21.9778 10.5865 23.9112 11.6853 25.5557C12.7841 27.2002 14.3459 28.4819 16.1732 29.2388C18.0004 29.9957 20.0111 30.1937 21.9509 29.8078C23.8907 29.422 25.6725 28.4696 27.0711 27.0711C28.4696 25.6725 29.422 23.8907 29.8078 21.9509C30.1937 20.0111 29.9957 18.0004 29.2388 16.1732C28.4819 14.3459 27.2002 12.7841 25.5557 11.6853Z" fill="#007DFC"></path><path class="ccustom" fill-rule="evenodd" clip-rule="evenodd" d="M10 5.16562e-07C10 1.31322 9.74135 2.61358 9.2388 3.82683C8.73625 5.04009 7.99966 6.14248 7.07107 7.07107C6.14249 7.99966 5.0401 8.73625 3.82684 9.2388C2.61358 9.74134 1.31322 10 5.4439e-06 10L5.00679e-06 20C2.62644 20 5.22716 19.4827 7.65368 18.4776C10.0802 17.4725 12.285 15.9993 14.1421 14.1421C15.9993 12.285 17.4725 10.0802 18.4776 7.65367C19.4827 5.22715 20 2.62643 20 -3.81469e-06L10 5.16562e-07Z" fill="#007DFC"></path></svg>